<?xml version="1.0" encoding="UTF-8"?>
<mxfile host="app.diagrams.net" agent="Mozilla/5.0 (Windows NT 10.0; Win64; x64; rv:136.0) Gecko/20100101 Firefox/136.0" version="26.1.0">
  <diagram name="Page-1" id="r8cucDlD3uPagZx595KA">
    <mxGraphModel dx="1178" dy="804" grid="1" gridSize="10" guides="1" tooltips="1" connect="1" arrows="1" fold="1" page="1" pageScale="1" pageWidth="1378" pageHeight="1693" math="0" shadow="0">
      <root>
        <mxCell id="0" />
        <mxCell id="1" parent="0" />
        <mxCell id="vRqvyTJ4AuiLB3XwPCij-26" value="Leaderboard and Matchmaking" style="shape=umlFrame;whiteSpace=wrap;html=1;pointerEvents=0;width=110;height=40;" parent="1" vertex="1">
          <mxGeometry x="360" y="710" width="610" height="520" as="geometry" />
        </mxCell>
        <mxCell id="vRqvyTJ4AuiLB3XwPCij-43" style="rounded=0;orthogonalLoop=1;jettySize=auto;html=1;exitX=1;exitY=0.3333333333333333;exitDx=0;exitDy=0;exitPerimeter=0;entryX=0;entryY=0.5;entryDx=0;entryDy=0;endArrow=none;startFill=0;" parent="1" source="vRqvyTJ4AuiLB3XwPCij-27" target="vRqvyTJ4AuiLB3XwPCij-28" edge="1">
          <mxGeometry relative="1" as="geometry" />
        </mxCell>
        <mxCell id="vRqvyTJ4AuiLB3XwPCij-47" style="rounded=0;orthogonalLoop=1;jettySize=auto;html=1;exitX=1;exitY=0.3333333333333333;exitDx=0;exitDy=0;exitPerimeter=0;entryX=0;entryY=0.5;entryDx=0;entryDy=0;endArrow=none;startFill=0;" parent="1" source="vRqvyTJ4AuiLB3XwPCij-27" target="vRqvyTJ4AuiLB3XwPCij-33" edge="1">
          <mxGeometry relative="1" as="geometry" />
        </mxCell>
        <mxCell id="vRqvyTJ4AuiLB3XwPCij-48" style="rounded=0;orthogonalLoop=1;jettySize=auto;html=1;exitX=1;exitY=0.3333333333333333;exitDx=0;exitDy=0;exitPerimeter=0;entryX=0;entryY=0.5;entryDx=0;entryDy=0;endArrow=none;startFill=0;" parent="1" source="vRqvyTJ4AuiLB3XwPCij-27" target="vRqvyTJ4AuiLB3XwPCij-32" edge="1">
          <mxGeometry relative="1" as="geometry" />
        </mxCell>
        <mxCell id="vRqvyTJ4AuiLB3XwPCij-49" style="rounded=0;orthogonalLoop=1;jettySize=auto;html=1;exitX=1;exitY=0.3333333333333333;exitDx=0;exitDy=0;exitPerimeter=0;entryX=0;entryY=0.5;entryDx=0;entryDy=0;endArrow=none;startFill=0;" parent="1" source="vRqvyTJ4AuiLB3XwPCij-27" target="vRqvyTJ4AuiLB3XwPCij-40" edge="1">
          <mxGeometry relative="1" as="geometry" />
        </mxCell>
        <mxCell id="vRqvyTJ4AuiLB3XwPCij-50" style="rounded=0;orthogonalLoop=1;jettySize=auto;html=1;exitX=1;exitY=0.3333333333333333;exitDx=0;exitDy=0;exitPerimeter=0;entryX=0;entryY=0.5;entryDx=0;entryDy=0;endArrow=none;startFill=0;" parent="1" source="vRqvyTJ4AuiLB3XwPCij-27" target="vRqvyTJ4AuiLB3XwPCij-36" edge="1">
          <mxGeometry relative="1" as="geometry" />
        </mxCell>
        <mxCell id="vRqvyTJ4AuiLB3XwPCij-71" style="rounded=0;orthogonalLoop=1;jettySize=auto;html=1;exitX=1;exitY=0.3333333333333333;exitDx=0;exitDy=0;exitPerimeter=0;entryX=0;entryY=0.5;entryDx=0;entryDy=0;endArrow=none;startFill=0;" parent="1" source="vRqvyTJ4AuiLB3XwPCij-27" target="vRqvyTJ4AuiLB3XwPCij-70" edge="1">
          <mxGeometry relative="1" as="geometry" />
        </mxCell>
        <mxCell id="vRqvyTJ4AuiLB3XwPCij-27" value="Player" style="shape=umlActor;verticalLabelPosition=bottom;verticalAlign=top;html=1;" parent="1" vertex="1">
          <mxGeometry x="240" y="915" width="30" height="60" as="geometry" />
        </mxCell>
        <mxCell id="vRqvyTJ4AuiLB3XwPCij-28" value="Find matchmade opponent" style="ellipse;whiteSpace=wrap;html=1;" parent="1" vertex="1">
          <mxGeometry x="390" y="770" width="90" height="50" as="geometry" />
        </mxCell>
        <mxCell id="vRqvyTJ4AuiLB3XwPCij-32" value="Check games leaderboard&lt;span style=&quot;color: rgba(0, 0, 0, 0); font-family: monospace; font-size: 0px; text-align: start; text-wrap-mode: nowrap;&quot;&gt;%3CmxGraphModel%3E%3Croot%3E%3CmxCell%20id%3D%220%22%2F%3E%3CmxCell%20id%3D%221%22%20parent%3D%220%22%2F%3E%3CmxCell%20id%3D%222%22%20value%3D%22login%22%20style%3D%22ellipse%3BwhiteSpace%3Dwrap%3Bhtml%3D1%3B%22%20vertex%3D%221%22%20parent%3D%221%22%3E%3CmxGeometry%20x%3D%22420%22%20y%3D%22320%22%20width%3D%2290%22%20height%3D%2250%22%20as%3D%22geometry%22%2F%3E%3C%2FmxCell%3E%3C%2Froot%3E%3C%2FmxGraphModel%3E&lt;/span&gt;&lt;span style=&quot;color: rgba(0, 0, 0, 0); font-family: monospace; font-size: 0px; text-align: start; text-wrap-mode: nowrap;&quot;&gt;%3CmxGraphModel%3E%3Croot%3E%3CmxCell%20id%3D%220%22%2F%3E%3CmxCell%20id%3D%221%22%20parent%3D%220%22%2F%3E%3CmxCell%20id%3D%222%22%20value%3D%22login%22%20style%3D%22ellipse%3BwhiteSpace%3Dwrap%3Bhtml%3D1%3B%22%20vertex%3D%221%22%20parent%3D%221%22%3E%3CmxGeometry%20x%3D%22420%22%20y%3D%22320%22%20width%3D%2290%22%20height%3D%2250%22%20as%3D%22geometry%22%2F%3E%3C%2FmxCell%3E%3C%2Froot%3E%3C%2FmxGraphModel%3E&lt;/span&gt;" style="ellipse;whiteSpace=wrap;html=1;" parent="1" vertex="1">
          <mxGeometry x="390" y="1120" width="90" height="50" as="geometry" />
        </mxCell>
        <mxCell id="vRqvyTJ4AuiLB3XwPCij-33" value="View other players profile" style="ellipse;whiteSpace=wrap;html=1;" parent="1" vertex="1">
          <mxGeometry x="390" y="840" width="90" height="50" as="geometry" />
        </mxCell>
        <mxCell id="vRqvyTJ4AuiLB3XwPCij-36" value="View match history" style="ellipse;whiteSpace=wrap;html=1;" parent="1" vertex="1">
          <mxGeometry x="390" y="980" width="90" height="50" as="geometry" />
        </mxCell>
        <mxCell id="vRqvyTJ4AuiLB3XwPCij-40" value="Challenge player from friends list" style="ellipse;whiteSpace=wrap;html=1;" parent="1" vertex="1">
          <mxGeometry x="390" y="1050" width="90" height="50" as="geometry" />
        </mxCell>
        <mxCell id="vRqvyTJ4AuiLB3XwPCij-70" value="View personal profile" style="ellipse;whiteSpace=wrap;html=1;" parent="1" vertex="1">
          <mxGeometry x="390" y="910" width="90" height="50" as="geometry" />
        </mxCell>
        <mxCell id="UgS7PmAXyMimvmcps0D6-3" value="Matchmaking logic finds fair opponent" style="ellipse;whiteSpace=wrap;html=1;" parent="1" vertex="1">
          <mxGeometry x="540" y="740" width="100" height="60" as="geometry" />
        </mxCell>
        <mxCell id="3ndTG3qFuQ8PELkFlzXc-2" value="" style="endArrow=classic;html=1;rounded=0;exitX=1;exitY=0.5;exitDx=0;exitDy=0;entryX=0;entryY=0.5;entryDx=0;entryDy=0;" edge="1" parent="1" source="vRqvyTJ4AuiLB3XwPCij-28" target="UgS7PmAXyMimvmcps0D6-3">
          <mxGeometry relative="1" as="geometry">
            <mxPoint x="540" y="830" as="sourcePoint" />
            <mxPoint x="640" y="830" as="targetPoint" />
          </mxGeometry>
        </mxCell>
        <mxCell id="3ndTG3qFuQ8PELkFlzXc-5" value="" style="endArrow=classic;html=1;rounded=0;exitX=1;exitY=0.5;exitDx=0;exitDy=0;entryX=0;entryY=0.5;entryDx=0;entryDy=0;" edge="1" parent="1" source="UgS7PmAXyMimvmcps0D6-3" target="3ndTG3qFuQ8PELkFlzXc-6">
          <mxGeometry width="50" height="50" relative="1" as="geometry">
            <mxPoint x="660" y="820" as="sourcePoint" />
            <mxPoint x="710" y="770" as="targetPoint" />
          </mxGeometry>
        </mxCell>
        <mxCell id="3ndTG3qFuQ8PELkFlzXc-6" value="Match details and player profiles sent to game logic to play game" style="ellipse;whiteSpace=wrap;html=1;" vertex="1" parent="1">
          <mxGeometry x="720" y="740" width="150" height="90" as="geometry" />
        </mxCell>
        <mxCell id="3ndTG3qFuQ8PELkFlzXc-7" value="Show profile statistics for a specific player" style="ellipse;whiteSpace=wrap;html=1;" vertex="1" parent="1">
          <mxGeometry x="520" y="830" width="125" height="60" as="geometry" />
        </mxCell>
        <mxCell id="3ndTG3qFuQ8PELkFlzXc-8" value="" style="endArrow=classic;html=1;rounded=0;exitX=1;exitY=0.5;exitDx=0;exitDy=0;entryX=0;entryY=0.5;entryDx=0;entryDy=0;" edge="1" parent="1" source="vRqvyTJ4AuiLB3XwPCij-33" target="3ndTG3qFuQ8PELkFlzXc-7">
          <mxGeometry width="50" height="50" relative="1" as="geometry">
            <mxPoint x="500" y="940" as="sourcePoint" />
            <mxPoint x="530" y="880" as="targetPoint" />
          </mxGeometry>
        </mxCell>
        <mxCell id="3ndTG3qFuQ8PELkFlzXc-9" value="" style="endArrow=classic;html=1;rounded=0;exitX=1;exitY=0.5;exitDx=0;exitDy=0;entryX=0.093;entryY=0.756;entryDx=0;entryDy=0;entryPerimeter=0;" edge="1" parent="1" source="vRqvyTJ4AuiLB3XwPCij-70" target="3ndTG3qFuQ8PELkFlzXc-7">
          <mxGeometry width="50" height="50" relative="1" as="geometry">
            <mxPoint x="580" y="990" as="sourcePoint" />
            <mxPoint x="630" y="940" as="targetPoint" />
          </mxGeometry>
        </mxCell>
        <mxCell id="3ndTG3qFuQ8PELkFlzXc-10" value="Retrieve match history statistics" style="ellipse;whiteSpace=wrap;html=1;" vertex="1" parent="1">
          <mxGeometry x="520" y="972.5" width="110" height="65" as="geometry" />
        </mxCell>
        <mxCell id="3ndTG3qFuQ8PELkFlzXc-11" value="" style="endArrow=classic;html=1;rounded=0;entryX=0;entryY=1;entryDx=0;entryDy=0;exitX=1;exitY=0;exitDx=0;exitDy=0;" edge="1" parent="1" source="3ndTG3qFuQ8PELkFlzXc-10" target="3ndTG3qFuQ8PELkFlzXc-13">
          <mxGeometry width="50" height="50" relative="1" as="geometry">
            <mxPoint x="580" y="990" as="sourcePoint" />
            <mxPoint x="630" y="940" as="targetPoint" />
          </mxGeometry>
        </mxCell>
        <mxCell id="3ndTG3qFuQ8PELkFlzXc-12" value="" style="endArrow=classic;html=1;rounded=0;exitX=1;exitY=0.5;exitDx=0;exitDy=0;entryX=0;entryY=0.5;entryDx=0;entryDy=0;" edge="1" parent="1" source="vRqvyTJ4AuiLB3XwPCij-36" target="3ndTG3qFuQ8PELkFlzXc-10">
          <mxGeometry width="50" height="50" relative="1" as="geometry">
            <mxPoint x="490" y="1030" as="sourcePoint" />
            <mxPoint x="540" y="980" as="targetPoint" />
          </mxGeometry>
        </mxCell>
        <mxCell id="3ndTG3qFuQ8PELkFlzXc-13" value="Retrieve player statistics from database" style="ellipse;whiteSpace=wrap;html=1;" vertex="1" parent="1">
          <mxGeometry x="660" y="880" width="125" height="70" as="geometry" />
        </mxCell>
        <mxCell id="3ndTG3qFuQ8PELkFlzXc-14" value="" style="endArrow=classic;html=1;rounded=0;exitX=1;exitY=0.5;exitDx=0;exitDy=0;entryX=0;entryY=0;entryDx=0;entryDy=0;" edge="1" parent="1" source="3ndTG3qFuQ8PELkFlzXc-7" target="3ndTG3qFuQ8PELkFlzXc-13">
          <mxGeometry width="50" height="50" relative="1" as="geometry">
            <mxPoint x="580" y="990" as="sourcePoint" />
            <mxPoint x="630" y="940" as="targetPoint" />
          </mxGeometry>
        </mxCell>
        <mxCell id="3ndTG3qFuQ8PELkFlzXc-15" value="Friend is notified by friendly challenge request" style="ellipse;whiteSpace=wrap;html=1;" vertex="1" parent="1">
          <mxGeometry x="770" y="1010" width="142.5" height="70" as="geometry" />
        </mxCell>
        <mxCell id="3ndTG3qFuQ8PELkFlzXc-16" value="" style="endArrow=classic;html=1;rounded=0;exitX=1;exitY=0.5;exitDx=0;exitDy=0;entryX=0;entryY=0.5;entryDx=0;entryDy=0;" edge="1" parent="1" source="vRqvyTJ4AuiLB3XwPCij-40" target="3ndTG3qFuQ8PELkFlzXc-15">
          <mxGeometry width="50" height="50" relative="1" as="geometry">
            <mxPoint x="580" y="1110" as="sourcePoint" />
            <mxPoint x="630" y="1060" as="targetPoint" />
          </mxGeometry>
        </mxCell>
        <mxCell id="3ndTG3qFuQ8PELkFlzXc-17" value="" style="endArrow=classic;html=1;rounded=0;exitX=0.5;exitY=0;exitDx=0;exitDy=0;entryX=0.5;entryY=1;entryDx=0;entryDy=0;" edge="1" parent="1" source="3ndTG3qFuQ8PELkFlzXc-15" target="3ndTG3qFuQ8PELkFlzXc-6">
          <mxGeometry width="50" height="50" relative="1" as="geometry">
            <mxPoint x="880" y="990" as="sourcePoint" />
            <mxPoint x="930" y="940" as="targetPoint" />
          </mxGeometry>
        </mxCell>
        <mxCell id="3ndTG3qFuQ8PELkFlzXc-18" value="Friendly challenge rejected and no game is made" style="ellipse;whiteSpace=wrap;html=1;" vertex="1" parent="1">
          <mxGeometry x="840" y="860" width="115" height="90" as="geometry" />
        </mxCell>
        <mxCell id="3ndTG3qFuQ8PELkFlzXc-19" value="" style="endArrow=classic;html=1;rounded=0;exitX=1;exitY=0;exitDx=0;exitDy=0;entryX=0.5;entryY=1;entryDx=0;entryDy=0;" edge="1" parent="1" source="3ndTG3qFuQ8PELkFlzXc-15" target="3ndTG3qFuQ8PELkFlzXc-18">
          <mxGeometry width="50" height="50" relative="1" as="geometry">
            <mxPoint x="890" y="1010" as="sourcePoint" />
            <mxPoint x="940" y="960" as="targetPoint" />
          </mxGeometry>
        </mxCell>
        <mxCell id="3ndTG3qFuQ8PELkFlzXc-20" value="Show leaderboard, including the player&#39;s own placement" style="ellipse;whiteSpace=wrap;html=1;" vertex="1" parent="1">
          <mxGeometry x="570" y="1105" width="125" height="80" as="geometry" />
        </mxCell>
        <mxCell id="3ndTG3qFuQ8PELkFlzXc-21" value="" style="endArrow=classic;html=1;rounded=0;exitX=1;exitY=0.5;exitDx=0;exitDy=0;entryX=0;entryY=0.5;entryDx=0;entryDy=0;" edge="1" parent="1" source="vRqvyTJ4AuiLB3XwPCij-32" target="3ndTG3qFuQ8PELkFlzXc-20">
          <mxGeometry width="50" height="50" relative="1" as="geometry">
            <mxPoint x="580" y="1110" as="sourcePoint" />
            <mxPoint x="630" y="1060" as="targetPoint" />
          </mxGeometry>
        </mxCell>
        <mxCell id="3ndTG3qFuQ8PELkFlzXc-22" value="Retrieve leaderboard and player rank from database" style="ellipse;whiteSpace=wrap;html=1;" vertex="1" parent="1">
          <mxGeometry x="780" y="1110" width="135" height="80" as="geometry" />
        </mxCell>
        <mxCell id="3ndTG3qFuQ8PELkFlzXc-23" value="" style="endArrow=classic;html=1;rounded=0;exitX=1;exitY=0.5;exitDx=0;exitDy=0;entryX=0;entryY=0.5;entryDx=0;entryDy=0;" edge="1" parent="1" source="3ndTG3qFuQ8PELkFlzXc-20" target="3ndTG3qFuQ8PELkFlzXc-22">
          <mxGeometry width="50" height="50" relative="1" as="geometry">
            <mxPoint x="580" y="1110" as="sourcePoint" />
            <mxPoint x="630" y="1060" as="targetPoint" />
          </mxGeometry>
        </mxCell>
      </root>
    </mxGraphModel>
  </diagram>
</mxfile>
